<svg width="273" height="37" viewBox="0 0 273 37" fill="none" xmlns="http://www.w3.org/2000/svg">
<path d="M6.675 32L0.405 10.4H3.69L8.235 26.735L12.78 10.415L16.08 10.4L20.625 26.735L25.17 10.4H28.47L22.185 32H19.065L14.43 15.845L9.795 32H6.675ZM35.7846 32.45C34.1746 32.45 32.7596 32.1 31.5396 31.4C30.3296 30.69 29.3846 29.705 28.7046 28.445C28.0346 27.175 27.6996 25.705 27.6996 24.035C27.6996 22.265 28.0296 20.73 28.6896 19.43C29.3596 18.13 30.2896 17.125 31.4796 16.415C32.6696 15.705 34.0546 15.35 35.6346 15.35C37.2846 15.35 38.6896 15.735 39.8496 16.505C41.0096 17.265 41.8746 18.35 42.4446 19.76C43.0246 21.17 43.2546 22.845 43.1346 24.785H39.9996V23.645C39.9796 21.765 39.6196 20.375 38.9196 19.475C38.2296 18.575 37.1746 18.125 35.7546 18.125C34.1846 18.125 33.0046 18.62 32.2146 19.61C31.4246 20.6 31.0296 22.03 31.0296 23.9C31.0296 25.68 31.4246 27.06 32.2146 28.04C33.0046 29.01 34.1446 29.495 35.6346 29.495C36.6146 29.495 37.4596 29.275 38.1696 28.835C38.8896 28.385 39.4496 27.745 39.8496 26.915L42.9246 27.89C42.2946 29.34 41.3396 30.465 40.0596 31.265C38.7796 32.055 37.3546 32.45 35.7846 32.45ZM30.0096 24.785V22.34H41.5746V24.785H30.0096ZM92.756 32.45C90.596 32.45 88.756 31.98 87.236 31.04C85.716 30.09 84.551 28.77 83.741 27.08C82.941 25.39 82.541 23.43 82.541 21.2C82.541 18.97 82.941 17.01 83.741 15.32C84.551 13.63 85.716 12.315 87.236 11.375C88.756 10.425 90.596 9.95 92.756 9.95C95.246 9.95 97.306 10.58 98.936 11.84C100.576 13.1 101.716 14.795 102.356 16.925L99.176 17.78C98.756 16.27 98.006 15.085 96.926 14.225C95.856 13.365 94.466 12.935 92.756 12.935C91.226 12.935 89.951 13.28 88.931 13.97C87.911 14.66 87.141 15.625 86.621 16.865C86.111 18.105 85.856 19.55 85.856 21.2C85.846 22.85 86.096 24.295 86.606 25.535C87.126 26.775 87.896 27.74 88.916 28.43C89.946 29.12 91.226 29.465 92.756 29.465C94.466 29.465 95.856 29.035 96.926 28.175C98.006 27.305 98.756 26.12 99.176 24.62L102.356 25.475C101.716 27.605 100.576 29.3 98.936 30.56C97.306 31.82 95.246 32.45 92.756 32.45ZM109.63 32.45C108.43 32.45 107.425 32.23 106.615 31.79C105.805 31.34 105.19 30.75 104.77 30.02C104.36 29.28 104.155 28.47 104.155 27.59C104.155 26.77 104.3 26.05 104.59 25.43C104.88 24.81 105.31 24.285 105.88 23.855C106.45 23.415 107.15 23.06 107.98 22.79C108.7 22.58 109.515 22.395 110.425 22.235C111.335 22.075 112.29 21.925 113.29 21.785C114.3 21.645 115.3 21.505 116.29 21.365L115.15 21.995C115.17 20.725 114.9 19.785 114.34 19.175C113.79 18.555 112.84 18.245 111.49 18.245C110.64 18.245 109.86 18.445 109.15 18.845C108.44 19.235 107.945 19.885 107.665 20.795L104.74 19.895C105.14 18.505 105.9 17.4 107.02 16.58C108.15 15.76 109.65 15.35 111.52 15.35C112.97 15.35 114.23 15.6 115.3 16.1C116.38 16.59 117.17 17.37 117.67 18.44C117.93 18.97 118.09 19.53 118.15 20.12C118.21 20.71 118.24 21.345 118.24 22.025V32H115.465V28.295L116.005 28.775C115.335 30.015 114.48 30.94 113.44 31.55C112.41 32.15 111.14 32.45 109.63 32.45ZM110.185 29.885C111.075 29.885 111.84 29.73 112.48 29.42C113.12 29.1 113.635 28.695 114.025 28.205C114.415 27.715 114.67 27.205 114.79 26.675C114.96 26.195 115.055 25.655 115.075 25.055C115.105 24.455 115.12 23.975 115.12 23.615L116.14 23.99C115.15 24.14 114.25 24.275 113.44 24.395C112.63 24.515 111.895 24.635 111.235 24.755C110.585 24.865 110.005 25 109.495 25.16C109.065 25.31 108.68 25.49 108.34 25.7C108.01 25.91 107.745 26.165 107.545 26.465C107.355 26.765 107.26 27.13 107.26 27.56C107.26 27.98 107.365 28.37 107.575 28.73C107.785 29.08 108.105 29.36 108.535 29.57C108.965 29.78 109.515 29.885 110.185 29.885ZM121.535 32V15.8H124.325V19.73L123.935 19.22C124.135 18.7 124.395 18.225 124.715 17.795C125.035 17.355 125.405 16.995 125.825 16.715C126.235 16.415 126.69 16.185 127.19 16.025C127.7 15.855 128.22 15.755 128.75 15.725C129.28 15.685 129.79 15.71 130.28 15.8V18.74C129.75 18.6 129.16 18.56 128.51 18.62C127.87 18.68 127.28 18.885 126.74 19.235C126.23 19.565 125.825 19.965 125.525 20.435C125.235 20.905 125.025 21.43 124.895 22.01C124.765 22.58 124.7 23.185 124.7 23.825V32H121.535ZM138.243 32V10.4H141.378V32H138.243ZM156.652 32V24.035C156.652 23.405 156.597 22.76 156.487 22.1C156.387 21.43 156.187 20.81 155.887 20.24C155.597 19.67 155.182 19.21 154.642 18.86C154.112 18.51 153.417 18.335 152.557 18.335C151.997 18.335 151.467 18.43 150.967 18.62C150.467 18.8 150.027 19.095 149.647 19.505C149.277 19.915 148.982 20.455 148.762 21.125C148.552 21.795 148.447 22.61 148.447 23.57L146.497 22.835C146.497 21.365 146.772 20.07 147.322 18.95C147.872 17.82 148.662 16.94 149.692 16.31C150.722 15.68 151.967 15.365 153.427 15.365C154.547 15.365 155.487 15.545 156.247 15.905C157.007 16.265 157.622 16.74 158.092 17.33C158.572 17.91 158.937 18.545 159.187 19.235C159.437 19.925 159.607 20.6 159.697 21.26C159.787 21.92 159.832 22.5 159.832 23V32H156.652ZM145.267 32V15.8H148.072V20.48H148.447V32H145.267ZM169.334 32.435C167.364 32.435 165.759 32 164.519 31.13C163.279 30.26 162.519 29.035 162.239 27.455L165.449 26.96C165.649 27.8 166.109 28.465 166.829 28.955C167.559 29.435 168.464 29.675 169.544 29.675C170.524 29.675 171.289 29.475 171.839 29.075C172.399 28.675 172.679 28.125 172.679 27.425C172.679 27.015 172.579 26.685 172.379 26.435C172.189 26.175 171.784 25.93 171.164 25.7C170.544 25.47 169.599 25.185 168.329 24.845C166.939 24.485 165.834 24.1 165.014 23.69C164.204 23.27 163.624 22.785 163.274 22.235C162.934 21.675 162.764 21 162.764 20.21C162.764 19.23 163.024 18.375 163.544 17.645C164.064 16.915 164.794 16.35 165.734 15.95C166.684 15.55 167.794 15.35 169.064 15.35C170.304 15.35 171.409 15.545 172.379 15.935C173.349 16.325 174.134 16.88 174.734 17.6C175.334 18.31 175.694 19.145 175.814 20.105L172.604 20.69C172.494 19.91 172.129 19.295 171.509 18.845C170.889 18.395 170.084 18.15 169.094 18.11C168.144 18.07 167.374 18.23 166.784 18.59C166.194 18.94 165.899 19.425 165.899 20.045C165.899 20.405 166.009 20.71 166.229 20.96C166.459 21.21 166.899 21.45 167.549 21.68C168.199 21.91 169.159 22.185 170.429 22.505C171.789 22.855 172.869 23.245 173.669 23.675C174.469 24.095 175.039 24.6 175.379 25.19C175.729 25.77 175.904 26.475 175.904 27.305C175.904 28.905 175.319 30.16 174.149 31.07C172.989 31.98 171.384 32.435 169.334 32.435ZM184.728 32.435C183.608 32.435 182.668 32.255 181.908 31.895C181.148 31.535 180.528 31.065 180.048 30.485C179.578 29.895 179.218 29.255 178.968 28.565C178.718 27.875 178.548 27.2 178.458 26.54C178.368 25.88 178.323 25.3 178.323 24.8V15.8H181.503V23.765C181.503 24.395 181.553 25.045 181.653 25.715C181.763 26.375 181.963 26.99 182.253 27.56C182.553 28.13 182.968 28.59 183.498 28.94C184.038 29.29 184.738 29.465 185.598 29.465C186.158 29.465 186.688 29.375 187.188 29.195C187.688 29.005 188.123 28.705 188.493 28.295C188.873 27.885 189.168 27.345 189.378 26.675C189.598 26.005 189.708 25.19 189.708 24.23L191.658 24.965C191.658 26.435 191.383 27.735 190.833 28.865C190.283 29.985 189.493 30.86 188.463 31.49C187.433 32.12 186.188 32.435 184.728 32.435ZM190.083 32V27.32H189.708V15.8H192.873V32H190.083ZM196.48 32V15.8H199.27V19.73L198.88 19.22C199.08 18.7 199.34 18.225 199.66 17.795C199.98 17.355 200.35 16.995 200.77 16.715C201.18 16.415 201.635 16.185 202.135 16.025C202.645 15.855 203.165 15.755 203.695 15.725C204.225 15.685 204.735 15.71 205.225 15.8V18.74C204.695 18.6 204.105 18.56 203.455 18.62C202.815 18.68 202.225 18.885 201.685 19.235C201.175 19.565 200.77 19.965 200.47 20.435C200.18 20.905 199.97 21.43 199.84 22.01C199.71 22.58 199.645 23.185 199.645 23.825V32H196.48ZM211.588 32.45C210.388 32.45 209.383 32.23 208.573 31.79C207.763 31.34 207.148 30.75 206.728 30.02C206.318 29.28 206.113 28.47 206.113 27.59C206.113 26.77 206.258 26.05 206.548 25.43C206.838 24.81 207.268 24.285 207.838 23.855C208.408 23.415 209.108 23.06 209.938 22.79C210.658 22.58 211.473 22.395 212.383 22.235C213.293 22.075 214.248 21.925 215.248 21.785C216.258 21.645 217.258 21.505 218.248 21.365L217.108 21.995C217.128 20.725 216.858 19.785 216.298 19.175C215.748 18.555 214.798 18.245 213.448 18.245C212.598 18.245 211.818 18.445 211.108 18.845C210.398 19.235 209.903 19.885 209.623 20.795L206.698 19.895C207.098 18.505 207.858 17.4 208.978 16.58C210.108 15.76 211.608 15.35 213.478 15.35C214.928 15.35 216.188 15.6 217.258 16.1C218.338 16.59 219.128 17.37 219.628 18.44C219.888 18.97 220.048 19.53 220.108 20.12C220.168 20.71 220.198 21.345 220.198 22.025V32H217.423V28.295L217.963 28.775C217.293 30.015 216.438 30.94 215.398 31.55C214.368 32.15 213.098 32.45 211.588 32.45ZM212.143 29.885C213.033 29.885 213.798 29.73 214.438 29.42C215.078 29.1 215.593 28.695 215.983 28.205C216.373 27.715 216.628 27.205 216.748 26.675C216.918 26.195 217.013 25.655 217.033 25.055C217.063 24.455 217.078 23.975 217.078 23.615L218.098 23.99C217.108 24.14 216.208 24.275 215.398 24.395C214.588 24.515 213.853 24.635 213.193 24.755C212.543 24.865 211.963 25 211.453 25.16C211.023 25.31 210.638 25.49 210.298 25.7C209.968 25.91 209.703 26.165 209.503 26.465C209.313 26.765 209.218 27.13 209.218 27.56C209.218 27.98 209.323 28.37 209.533 28.73C209.743 29.08 210.063 29.36 210.493 29.57C210.923 29.78 211.473 29.885 212.143 29.885ZM234.863 32V24.035C234.863 23.405 234.808 22.76 234.698 22.1C234.598 21.43 234.398 20.81 234.098 20.24C233.808 19.67 233.393 19.21 232.853 18.86C232.323 18.51 231.628 18.335 230.768 18.335C230.208 18.335 229.678 18.43 229.178 18.62C228.678 18.8 228.238 19.095 227.858 19.505C227.488 19.915 227.193 20.455 226.973 21.125C226.763 21.795 226.658 22.61 226.658 23.57L224.708 22.835C224.708 21.365 224.983 20.07 225.533 18.95C226.083 17.82 226.873 16.94 227.903 16.31C228.933 15.68 230.178 15.365 231.638 15.365C232.758 15.365 233.698 15.545 234.458 15.905C235.218 16.265 235.833 16.74 236.303 17.33C236.783 17.91 237.148 18.545 237.398 19.235C237.648 19.925 237.818 20.6 237.908 21.26C237.998 21.92 238.043 22.5 238.043 23V32H234.863ZM223.478 32V15.8H226.283V20.48H226.658V32H223.478ZM248.075 32.45C246.415 32.45 245.005 32.08 243.845 31.34C242.685 30.6 241.795 29.585 241.175 28.295C240.565 27.005 240.255 25.54 240.245 23.9C240.255 22.23 240.575 20.755 241.205 19.475C241.835 18.185 242.735 17.175 243.905 16.445C245.075 15.715 246.48 15.35 248.12 15.35C249.89 15.35 251.4 15.79 252.65 16.67C253.91 17.55 254.74 18.755 255.14 20.285L252.02 21.185C251.71 20.275 251.2 19.57 250.49 19.07C249.79 18.56 248.985 18.305 248.075 18.305C247.045 18.305 246.2 18.55 245.54 19.04C244.88 19.52 244.39 20.18 244.07 21.02C243.75 21.86 243.585 22.82 243.575 23.9C243.585 25.57 243.965 26.92 244.715 27.95C245.475 28.98 246.595 29.495 248.075 29.495C249.085 29.495 249.9 29.265 250.52 28.805C251.15 28.335 251.63 27.665 251.96 26.795L255.14 27.545C254.61 29.125 253.735 30.34 252.515 31.19C251.295 32.03 249.815 32.45 248.075 32.45ZM264.341 32.45C262.731 32.45 261.316 32.1 260.096 31.4C258.886 30.69 257.941 29.705 257.261 28.445C256.591 27.175 256.256 25.705 256.256 24.035C256.256 22.265 256.586 20.73 257.246 19.43C257.916 18.13 258.846 17.125 260.036 16.415C261.226 15.705 262.611 15.35 264.191 15.35C265.841 15.35 267.246 15.735 268.406 16.505C269.566 17.265 270.431 18.35 271.001 19.76C271.581 21.17 271.811 22.845 271.691 24.785H268.556V23.645C268.536 21.765 268.176 20.375 267.476 19.475C266.786 18.575 265.731 18.125 264.311 18.125C262.741 18.125 261.561 18.62 260.771 19.61C259.981 20.6 259.586 22.03 259.586 23.9C259.586 25.68 259.981 27.06 260.771 28.04C261.561 29.01 262.701 29.495 264.191 29.495C265.171 29.495 266.016 29.275 266.726 28.835C267.446 28.385 268.006 27.745 268.406 26.915L271.481 27.89C270.851 29.34 269.896 30.465 268.616 31.265C267.336 32.055 265.911 32.45 264.341 32.45ZM258.566 24.785V22.34H270.131V24.785H258.566Z" fill="white"/>
<path d="M62 33L60.115 31.2736C53.42 25.1657 49 21.1373 49 16.1935C49 12.1651 52.146 9 56.15 9C58.412 9 60.583 10.0594 62 11.7335C63.417 10.0594 65.588 9 67.85 9C71.854 9 75 12.1651 75 16.1935C75 21.1373 70.58 25.1657 63.885 31.2866L62 33Z" fill="#4E6994"/>
</svg>
